<?xml version="1.0" standalone="no"?>
<!DOCTYPE svg PUBLIC "-//W3C//DTD SVG 20010904//EN"
 "http://www.w3.org/TR/2001/REC-SVG-20010904/DTD/svg10.dtd">
<svg version="1.0" xmlns="http://www.w3.org/2000/svg"
 width="325.000000pt" height="325.000000pt" viewBox="0 0 325.000000 325.000000"
 preserveAspectRatio="xMidYMid meet">
<metadata>
Created by potrace 1.14, written by Peter Selinger 2001-2017
</metadata>
<g transform="translate(0.000000,325.000000) scale(0.100000,-0.100000)"
fill="#000000" stroke="none">
<path d="M1589 3140 c-99 -73 -292 -147 -468 -180 -309 -58 -661 -6 -978 145
-52 25 -96 45 -98 45 -9 0 -25 -73 -31 -150 -12 -140 -5 -606 10 -686 2 -10 7
-48 11 -84 3 -36 8 -77 11 -91 2 -14 6 -43 9 -63 2 -21 7 -46 9 -55 3 -9 7
-34 11 -56 3 -22 8 -48 11 -57 5 -17 11 -45 20 -88 13 -67 64 -239 88 -300
171 -429 256 -561 551 -855 162 -162 170 -169 300 -265 196 -145 484 -310 540
-310 27 0 64 13 211 76 153 66 273 135 468 270 40 28 219 186 277 245 93 96
259 303 259 325 0 3 8 18 19 32 39 55 186 355 196 400 2 9 13 42 24 72 43 121
85 271 97 345 3 22 7 42 9 45 2 3 6 25 10 50 4 25 8 47 10 50 2 3 6 37 10 75
4 39 9 73 11 76 1 3 6 37 9 75 3 38 8 83 10 99 4 32 11 94 20 185 16 169 26
632 14 645 -4 3 -35 -8 -71 -24 -139 -65 -417 -151 -533 -165 -22 -3 -60 -8
-85 -12 -59 -9 -229 -10 -305 -2 -181 20 -385 82 -563 172 -67 34 -68 34 -93
16z m103 -61 c118 -59 317 -123 448 -143 19 -3 58 -8 85 -13 57 -9 238 -9 305
0 88 11 227 38 340 66 71 18 117 25 121 19 17 -27 -5 -379 -36 -588 -2 -19 -7
-57 -10 -85 -5 -43 -13 -95 -40 -255 -3 -14 -7 -36 -9 -50 -3 -14 -8 -43 -11
-65 -9 -65 -13 -70 -65 -90 -27 -10 -47 -21 -45 -24 3 -2 23 4 45 14 22 10 42
16 44 14 2 -2 -3 -32 -11 -65 l-14 -62 -102 -36 c-238 -84 -423 -146 -433
-146 -7 0 -17 15 -23 32 -10 27 -9 35 3 43 8 6 86 39 173 74 87 35 177 71 199
81 23 11 54 22 68 26 14 3 29 11 33 17 7 12 10 13 -104 -33 -398 -161 -494
-201 -440 -186 15 5 17 0 15 -36 -3 -42 -7 -47 -68 -73 l-35 -14 30 0 c89 3
87 -14 -4 -41 -38 -12 -77 -27 -87 -34 -15 -11 -10 -12 32 -5 27 4 66 8 87 8
l37 1 -4 -72 c-3 -40 -8 -120 -12 -178 -11 -179 -8 -165 -35 -162 -157 19
-219 6 -294 -60 l-45 -40 -46 41 c-25 22 -69 49 -98 60 -94 35 -224 14 -292
-46 -53 -49 -52 -48 -88 -11 -34 35 -103 74 -147 84 -27 5 -106 6 -129 1 -53
-13 -114 -45 -141 -73 -12 -13 -28 -24 -35 -24 -38 0 -201 242 -312 465 -60
120 -171 415 -156 415 2 0 -3 17 -10 39 -18 49 -46 189 -62 300 -3 25 -8 57
-10 71 -17 103 -21 723 -5 748 3 5 48 -3 106 -20 55 -16 116 -31 135 -34 19
-3 42 -7 50 -9 70 -18 359 -26 458 -12 165 23 373 90 497 162 33 19 66 35 73
35 7 0 40 -14 74 -31z m1518 -115 c0 -161 -12 -411 -24 -524 -3 -19 -7 -69
-10 -111 -4 -42 -8 -85 -10 -96 -3 -11 -7 -44 -11 -74 -3 -30 -9 -67 -12 -84
-3 -16 -7 -37 -8 -45 -9 -74 -60 -290 -95 -409 -110 -368 -286 -671 -542 -932
-62 -64 -250 -222 -308 -260 -216 -142 -327 -203 -473 -259 -114 -44 -143 -46
-202 -18 -111 52 -323 184 -450 282 -230 175 -512 467 -631 653 -49 75 -137
258 -174 359 -18 49 -36 98 -41 109 -41 98 -130 486 -144 630 -4 39 -9 79 -11
90 -12 63 -19 209 -19 435 0 252 6 374 19 387 3 4 28 -4 54 -17 26 -13 69 -34
95 -45 l48 -21 4 -325 c2 -178 6 -342 9 -364 2 -22 7 -70 10 -107 4 -37 11
-91 17 -120 5 -29 12 -69 15 -88 3 -19 12 -62 21 -95 8 -33 16 -67 18 -75 36
-182 174 -497 305 -694 150 -227 254 -337 561 -589 49 -40 213 -148 286 -188
l62 -34 53 18 c151 52 466 234 583 337 171 150 300 293 374 416 134 220 285
589 316 773 3 19 7 37 9 40 2 3 7 29 11 56 10 71 11 82 25 160 6 39 13 86 16
105 4 35 14 101 19 132 2 9 6 45 10 80 3 35 8 74 10 88 5 28 13 108 22 214 3
39 6 118 6 175 l-1 103 37 15 c62 25 105 44 121 52 8 5 18 6 23 2 4 -4 7 -66
7 -137z m-380 -1244 c0 -14 -18 -22 -115 -57 -273 -96 -310 -111 -307 -124 3
-11 1 -11 -9 -2 -9 9 -21 8 -51 -4 -29 -12 -42 -13 -51 -4 -7 7 -7 14 -1 19 5
5 115 44 244 87 129 43 238 81 242 84 12 10 48 11 48 1z m-30 -55 c0 -5 -133
-45 -146 -44 -11 1 115 46 134 48 6 0 12 -1 12 -4z m-16 -61 c-19 -37 -22 -39
-193 -96 -185 -61 -264 -77 -277 -56 -13 20 -15 50 -4 43 5 -3 92 22 192 55
101 34 194 64 206 66 13 3 38 11 55 18 18 7 34 12 36 10 2 -2 -5 -20 -15 -40z
m-175 2 c-2 -2 -15 -9 -29 -15 -24 -11 -24 -11 -6 3 16 13 49 24 35 12z m-339
-16 c0 -5 -2 -10 -4 -10 -3 0 -8 5 -11 10 -3 6 -1 10 4 10 6 0 11 -4 11 -10z
m275 -9 c-6 -5 -21 -11 -35 -15 -21 -5 -20 -3 5 9 35 17 42 18 30 6z m-285
-15 c0 -3 -4 -8 -10 -11 -5 -3 -10 -1 -10 4 0 6 5 11 10 11 6 0 10 -2 10 -4z
m475 -88 c-52 -119 -157 -322 -201 -387 -48 -73 -143 -182 -145 -166 -1 11 -5
38 -19 139 -6 38 -13 94 -17 125 -3 31 -13 94 -23 141 -16 80 -17 117 0 91 3
-7 13 -9 21 -7 8 3 25 8 39 10 14 3 102 32 195 63 94 32 172 57 174 56 2 -2
-8 -31 -24 -65z m-455 52 c0 -5 -7 -10 -16 -10 -8 0 -12 5 -9 10 3 6 10 10 16
10 5 0 9 -4 9 -10z m-4 -78 c-20 -20 -39 -7 -24 18 9 14 15 16 26 8 11 -9 11
-14 -2 -26z m-61 -1 c-3 -6 -21 -11 -38 -10 l-32 1 35 12 c38 14 46 13 35 -3z
m85 -42 c0 -6 -4 -7 -10 -4 -5 3 -10 11 -10 16 0 6 5 7 10 4 6 -3 10 -11 10
-16z m-50 1 c0 -5 -4 -10 -10 -10 -5 0 -10 5 -10 10 0 6 5 10 10 10 6 0 10 -4
10 -10z m34 -16 c19 -7 21 -25 4 -42 -7 -7 -17 -8 -30 -1 -21 11 -24 35 -5 42
6 3 13 6 14 6 1 1 8 -2 17 -5z m-37 -88 c-18 -18 -27 -4 -19 27 4 17 6 17 20
3 13 -13 13 -16 -1 -30z m63 18 c0 -8 -4 -12 -10 -9 -5 3 -10 10 -10 16 0 5 5
9 10 9 6 0 10 -7 10 -16z m-10 -30 c11 -12 10 -18 -3 -32 -16 -15 -18 -15 -34
0 -13 14 -14 20 -3 32 7 9 16 16 20 16 4 0 13 -7 20 -16z m-33 -59 c2 -1 -8
-12 -22 -25 l-25 -24 4 35 c3 19 5 36 5 38 1 2 9 -3 19 -10 9 -7 18 -14 19
-14z m63 -1 c0 -22 -2 -24 -14 -14 -8 6 -12 18 -9 26 9 23 23 16 23 -12z m-11
-66 c-15 -28 -37 -33 -60 -13 -19 18 -19 18 2 41 20 21 23 22 45 7 19 -12 22
-19 13 -35z m-69 -28 l23 -20 -23 -25 c-14 -14 -26 -21 -30 -15 -5 9 -1 80 5
80 1 0 12 -9 25 -20z m95 -19 c4 -24 -7 -28 -24 -8 -8 10 -7 17 1 25 14 14 17
11 23 -17z m-26 -30 l23 -18 -26 -28 c-24 -26 -28 -27 -51 -15 -31 16 -31 22
-2 54 26 31 26 30 56 7z m43 -87 c5 -43 0 -48 -31 -23 -23 19 -23 20 -6 39 25
28 32 25 37 -16z m-1185 11 c43 -13 68 -29 110 -71 l55 -55 39 39 c112 115
285 116 397 3 23 -24 42 -46 42 -51 0 -5 24 15 53 43 64 64 122 87 209 83 82
-3 156 -41 204 -107 38 -52 40 -61 20 -78 -11 -10 -17 -8 -25 6 -9 15 -12 15
-20 4 -5 -7 -7 -21 -4 -30 3 -10 -9 -30 -28 -49 -31 -30 -50 -36 -114 -34
-177 5 -270 3 -273 -7 -2 -6 -13 -11 -24 -11 -13 0 -18 5 -15 14 3 8 3 17 -1
20 -3 4 -6 29 -7 57 -1 33 -7 55 -19 67 -17 16 -17 14 -13 -50 4 -44 2 -70 -5
-75 -12 -7 -357 -5 -368 2 -11 7 -33 -23 -25 -35 3 -5 1 -10 -4 -10 -6 0 -11
6 -11 14 0 8 -6 16 -14 19 -8 3 -15 28 -19 61 -3 30 -13 66 -22 78 -16 22 -17
20 -12 -49 4 -50 2 -73 -6 -76 -7 -2 -59 -3 -117 -1 -103 3 -105 3 -132 33
-28 31 -31 46 -30 149 1 28 -3 42 -12 42 -21 0 -44 -33 -49 -70 -3 -30 -5 -32
-11 -13 -5 12 -14 19 -20 17 -7 -3 -19 2 -26 11 -11 13 -6 21 31 55 70 64 166
84 266 55z m1076 -3 c10 -10 14 -22 10 -25 -3 -4 3 -7 15 -7 12 0 38 -10 57
-22 35 -23 44 -50 25 -78 -9 -13 -14 -10 -36 15 -41 49 -71 79 -95 96 -13 9
-19 20 -15 27 10 17 20 15 39 -6z m-1270 -191 c-1 -2 -9 2 -18 9 -18 15 -20
71 -2 89 10 10 13 2 17 -41 3 -29 4 -55 3 -57z m284 -126 c14 -5 6 -67 -10
-77 -11 -7 4 -12 25 -9 4 0 5 -6 2 -14 -4 -8 -1 -15 6 -15 6 0 8 -4 5 -10 -10
-16 -135 62 -135 85 0 9 36 5 47 -6 6 -6 21 -9 34 -6 22 4 21 4 -4 6 -17 0
-26 5 -22 11 4 7 -7 10 -33 9 -36 -3 -72 13 -72 30 0 7 135 3 157 -4z m73 5
c0 -5 -5 -10 -11 -10 -5 0 -7 5 -4 10 3 6 8 10 11 10 2 0 4 -4 4 -10z m378 -9
c29 -1 32 -4 32 -31 0 -22 -5 -30 -17 -31 -11 0 -13 -3 -5 -6 17 -7 15 -21 -5
-26 -14 -4 -12 -5 5 -6 12 0 22 -6 22 -11 0 -13 -39 -29 -62 -24 -10 1 -18 -2
-18 -8 0 -7 16 -8 46 -3 28 4 57 2 74 -5 20 -8 34 -9 47 -1 17 10 17 10 -2 12
-16 1 -16 2 5 8 18 5 24 14 23 29 -2 18 3 22 25 22 25 1 26 1 7 13 -11 7 -21
24 -23 39 l-3 27 131 -4 c135 -4 168 -10 112 -21 -18 -4 -30 -10 -27 -14 5 -8
-45 -46 -57 -42 -4 1 -19 -9 -32 -23 -16 -16 -37 -25 -58 -26 -25 0 -28 -2
-14 -8 17 -6 16 -9 -9 -25 -15 -10 -29 -15 -32 -12 -4 3 -13 -3 -21 -15 -10
-14 -21 -19 -36 -15 -12 3 -28 0 -36 -5 -12 -9 -10 -10 8 -6 18 4 21 3 12 -8
-17 -21 -107 -55 -127 -49 -15 5 -15 4 -3 -4 15 -11 3 -19 -60 -36 -20 -6 -22
-5 -10 4 11 8 5 9 -27 5 -35 -5 -50 -1 -92 26 -30 18 -48 35 -44 42 4 6 1 8
-8 5 -9 -3 -26 3 -40 14 l-24 20 43 -6 c27 -4 42 -2 42 5 0 6 -19 9 -48 8 -33
-2 -58 3 -80 16 -49 30 -42 38 31 38 32 0 36 13 7 22 -31 10 -23 22 13 18 17
-2 26 0 18 3 -11 5 -11 8 0 15 11 6 11 11 1 21 -12 12 -16 50 -6 61 3 3 70 4
148 2 77 -2 156 -4 174 -4z m102 -5 c0 -3 -4 -8 -10 -11 -5 -3 -10 -1 -10 4 0
6 5 11 10 11 6 0 10 -2 10 -4z m17 -15 c0 -10 -9 -24 -19 -30 -22 -14 -21 3 2
30 19 22 19 22 17 0z m-475 -14 c-3 -12 -7 -16 -10 -9 -2 6 -10 12 -18 12 -22
0 -9 15 14 17 16 1 19 -3 14 -20z m448 -95 c0 -5 -13 -7 -30 -4 -16 2 -30 6
-30 8 0 2 14 4 30 4 17 0 30 -4 30 -8z"/>
<path d="M1593 2802 c-31 -2 -44 -8 -48 -22 -3 -10 -23 -24 -43 -30 -20 -7
-52 -21 -71 -32 -21 -11 -44 -17 -57 -14 -31 8 -87 -49 -74 -75 6 -11 3 -29
-9 -55 -10 -22 -24 -58 -31 -81 -7 -23 -20 -43 -29 -45 -11 -2 -16 -16 -17
-46 -1 -36 3 -45 22 -54 13 -6 24 -23 28 -42 3 -17 17 -52 30 -76 16 -31 21
-50 15 -61 -6 -12 1 -26 27 -53 30 -31 38 -35 51 -25 12 10 21 9 47 -5 17 -9
52 -23 76 -30 25 -8 44 -19 43 -25 -3 -12 25 -27 47 -25 8 1 26 2 38 3 14 1
26 9 29 20 3 13 17 21 41 26 21 3 57 17 81 31 34 19 47 22 58 13 21 -18 85 46
77 77 -3 12 3 38 14 60 11 22 25 58 31 82 7 25 18 42 26 42 8 0 15 3 16 8 8
58 -3 108 -20 98 -5 -4 -15 11 -21 31 -7 21 -23 57 -35 80 -14 25 -21 51 -18
63 4 15 -3 31 -23 51 -23 24 -34 28 -57 23 -15 -3 -33 -1 -40 4 -7 6 -37 18
-67 28 -30 9 -64 27 -75 38 -15 16 -30 21 -62 18z m158 -123 c151 -77 216
-251 147 -399 -41 -89 -107 -145 -203 -173 -197 -57 -400 102 -390 305 3 73 5
80 30 132 71 146 269 211 416 135z"/>
<path d="M1572 2673 c-26 -5 -41 -31 -24 -42 17 -10 18 -436 2 -456 -9 -11 -7
-16 9 -24 38 -21 72 -7 54 22 -4 6 -8 112 -8 235 0 170 3 226 12 234 10 8 10
14 2 24 -6 8 -14 13 -18 13 -3 -1 -16 -4 -29 -6z"/>
<path d="M1640 2651 c0 -10 7 -21 15 -25 13 -5 15 -41 15 -241 0 -129 2 -235
4 -235 2 0 11 3 20 6 14 5 16 35 16 225 0 224 2 233 38 211 9 -6 11 -55 9
-206 -4 -176 -2 -197 12 -194 12 3 17 20 21 78 l5 75 17 -32 c23 -42 35 -48
47 -25 8 15 3 29 -25 70 l-36 51 32 56 c25 44 30 59 20 68 -9 9 -17 5 -34 -16
l-23 -29 1 52 c2 47 -1 54 -29 76 -31 24 -96 54 -115 54 -5 0 -10 -9 -10 -19z"/>
<path d="M1484 2638 c-6 -7 -10 -61 -9 -120 0 -60 -3 -108 -6 -108 -4 0 -15
35 -24 78 -24 109 -28 113 -60 64 -32 -49 -44 -96 -41 -166 4 -77 70 -190 91
-156 4 6 -8 39 -26 75 -31 63 -33 86 -19 183 0 1 4 2 9 2 5 0 19 -44 31 -97
41 -178 55 -226 68 -231 9 -3 12 25 12 117 1 67 1 176 1 243 0 117 -6 145 -27
116z"/>
<path d="M2538 2735 c-2 -2 -23 -5 -48 -8 -199 -25 -328 -165 -299 -326 12
-66 48 -131 95 -175 19 -17 34 -34 34 -37 0 -3 -20 -19 -45 -34 -95 -60 -110
-156 -34 -217 47 -38 41 -45 -54 -59 -136 -20 -691 -30 -862 -16 -206 17 -251
26 -292 62 l-28 24 32 33 c38 39 52 107 31 148 -12 22 -61 62 -91 73 -7 3 3
18 26 37 186 157 24 430 -283 475 -61 9 -169 9 -209 0 -59 -13 -119 -44 -146
-77 -32 -38 -30 -64 10 -178 32 -94 50 -113 108 -114 34 0 53 6 82 28 32 24
36 33 32 60 -2 17 -7 38 -11 47 -6 15 0 17 51 14 259 -13 428 -142 323 -246
-21 -21 -36 -29 -49 -24 -78 24 -267 31 -372 12 -107 -19 -153 -38 -175 -72
-14 -22 -15 -32 -5 -64 6 -21 11 -52 11 -68 0 -56 39 -74 156 -74 65 0 174 28
230 59 22 12 141 -13 173 -36 34 -25 35 -36 8 -51 -31 -16 -57 -62 -57 -99 0
-92 125 -158 357 -188 21 -2 65 -9 98 -14 171 -27 466 -29 675 -5 159 18 285
60 329 111 41 46 41 87 1 142 -38 53 -38 68 1 88 73 37 145 41 205 11 68 -34
139 -54 207 -56 52 -2 60 1 87 28 20 19 29 37 27 52 -2 13 2 43 9 67 17 56 8
73 -51 101 -88 41 -222 54 -393 36 l-74 -7 -35 33 c-100 96 -83 180 46 231 46
18 76 22 176 22 146 1 175 -5 175 -39 0 -13 -4 -26 -9 -29 -13 -8 -2 -42 19
-61 9 -8 40 -18 68 -22 45 -5 53 -3 77 21 25 25 27 32 22 88 -2 36 1 79 9 106
18 58 18 55 -13 93 -32 37 -107 73 -178 84 -48 8 -172 14 -177 10z m243 -49
c25 -9 60 -30 78 -47 30 -27 32 -33 26 -72 -3 -23 -9 -59 -12 -79 -5 -39 -12
-45 -28 -29 -28 26 -187 53 -304 52 -91 -1 -111 -5 -178 -30 -65 -25 -91 -43
-118 -85 l-19 -29 -12 28 c-12 31 -1 112 22 157 36 69 126 125 239 148 65 13
254 4 306 -14z m-1973 -20 c149 -52 237 -142 246 -254 4 -44 -17 -122 -30
-109 -5 5 -12 31 -13 54 -2 25 -61 80 -113 105 -139 67 -368 75 -459 15 l-25
-17 -27 65 c-15 35 -24 71 -21 79 8 21 50 48 114 72 79 30 226 26 328 -10z
m-292 -211 c0 -17 -6 -25 -17 -25 -24 0 -33 18 -19 35 19 23 36 18 36 -10z
m52 -2 c12 -23 -1 -59 -27 -72 -31 -17 -79 -13 -101 9 -22 22 -26 40 -10 40 6
0 10 -4 10 -9 0 -18 59 -31 86 -19 21 10 24 16 19 40 -7 31 9 39 23 11z m2237
-3 c4 -6 -8 -10 -30 -10 -22 0 -34 4 -30 10 3 6 17 10 30 10 13 0 27 -4 30
-10z m55 -55 c0 -13 -5 -27 -11 -30 -19 -13 -81 -7 -96 8 -25 25 -6 40 43 33
36 -4 44 -3 44 10 0 8 5 12 10 9 6 -3 10 -17 10 -30z m-1996 -180 c57 -10 137
-48 166 -79 40 -43 29 -123 -22 -155 -17 -11 -23 -10 -42 7 -39 37 -147 57
-301 56 -101 0 -153 -5 -242 -20 -31 -6 -33 -5 -33 24 0 17 -4 42 -9 55 -20
52 16 85 111 103 18 3 51 9 73 13 44 9 237 6 299 -4z m1927 -57 c31 -14 59
-33 62 -41 3 -9 0 -44 -7 -79 -15 -72 -11 -71 -121 -39 -143 43 -332 30 -413
-28 -17 -11 -35 -21 -40 -21 -16 0 -52 55 -54 82 -5 54 85 131 167 144 22 3
42 8 45 11 3 3 73 3 155 1 134 -4 156 -8 206 -30z m-1781 -243 c13 -15 120
-59 127 -51 3 2 19 0 36 -5 81 -23 420 -30 797 -16 216 8 263 13 301 33 24 12
28 11 50 -12 15 -16 23 -37 23 -58 0 -82 -133 -137 -394 -164 -143 -15 -532
-7 -645 13 -289 51 -373 81 -396 144 -16 42 -3 87 34 110 38 25 51 26 67 6z"/>
<path d="M2518 2639 c-14 -15 -15 -19 -2 -30 15 -12 19 -39 6 -39 -5 0 -15 11
-22 24 -19 36 -39 40 -52 11 -9 -20 -8 -28 7 -45 11 -13 23 -17 34 -12 9 5 35
8 59 7 37 -1 43 2 49 23 6 25 -20 62 -34 48 -4 -4 -1 -11 6 -15 7 -5 11 -17 9
-26 -3 -18 -4 -18 -21 0 -10 10 -17 26 -14 35 7 28 -6 38 -25 19z m-34 -54 c3
-9 0 -15 -9 -15 -8 0 -15 7 -15 15 0 8 4 15 9 15 5 0 11 -7 15 -15z"/>
<path d="M2670 2651 c0 -6 -12 -11 -27 -12 -16 0 -22 -3 -16 -6 9 -3 10 -10 3
-23 -11 -21 -4 -46 15 -54 19 -7 37 18 34 46 -2 13 0 28 4 35 4 6 3 14 -3 18
-5 3 -10 1 -10 -4z m-14 -78 c-10 -10 -19 5 -10 18 6 11 8 11 12 0 2 -7 1 -15
-2 -18z"/>
<path d="M2773 2643 c-7 -3 -13 -8 -13 -13 0 -11 39 -20 45 -10 7 11 -17 28
-32 23z"/>
<path d="M2720 2612 c0 -6 10 -12 23 -14 14 -2 23 -11 25 -25 4 -28 -2 -29
-29 -2 -16 16 -23 18 -34 9 -8 -6 -12 -17 -9 -25 7 -18 64 -28 80 -14 18 14
18 69 2 69 -7 0 -23 3 -35 6 -13 4 -23 2 -23 -4z"/>
<path d="M2325 2595 c-22 -7 -35 -13 -28 -14 7 -1 10 -7 7 -14 -3 -8 4 -24 14
-38 17 -20 22 -22 36 -10 17 14 13 50 -6 62 -13 8 30 19 48 12 8 -3 14 -10 14
-16 0 -6 -3 -7 -7 -4 -10 11 -32 -13 -26 -29 7 -19 39 -18 47 2 9 24 8 31 -10
48 -18 19 -35 19 -89 1z m20 -44 c3 -5 1 -12 -5 -16 -5 -3 -10 1 -10 9 0 18 6
21 15 7z"/>
<path d="M2807 2583 c-11 -11 -8 -51 5 -59 7 -5 9 0 6 14 -4 14 0 22 13 25 11
3 19 10 19 16 0 12 -33 15 -43 4z"/>
<path d="M643 2653 c-15 -6 -18 -93 -3 -93 6 0 10 7 10 15 0 21 9 19 30 -7 17
-22 18 -22 16 26 -1 39 -5 50 -21 56 -11 4 -26 5 -32 3z m37 -27 c0 -11 -19
-15 -25 -6 -3 5 1 10 9 10 9 0 16 -2 16 -4z"/>
<path d="M534 2624 c-14 -56 41 -101 66 -55 14 27 13 47 -6 65 -24 25 -53 20
-60 -10z m51 -24 c0 -13 -6 -25 -12 -27 -16 -6 -27 21 -19 43 9 23 31 11 31
-16z"/>
<path d="M490 2635 c-1 -5 -2 -19 -1 -30 2 -19 1 -19 -12 -2 -22 27 -40 21
-34 -10 l5 -28 -18 23 c-28 34 -31 12 -4 -30 30 -47 48 -50 39 -5 l-8 32 20
-24 c30 -37 41 -23 27 34 -6 28 -13 46 -14 40z"/>
<path d="M725 2630 c-3 -5 -4 -10 -2 -10 3 0 1 -16 -3 -35 -9 -39 4 -58 14
-22 l7 22 11 -22 c16 -33 31 -28 23 6 -3 17 -2 32 4 36 6 3 11 13 11 21 0 12
-5 11 -27 -3 -26 -17 -27 -17 -20 0 7 18 -7 24 -18 7z"/>
<path d="M853 2560 c-14 -27 -17 -40 -9 -40 10 0 46 59 46 75 0 17 -18 -1 -37
-35z"/>
<path d="M904 2566 c-3 -8 0 -24 6 -36 13 -24 8 -36 -9 -25 -6 3 -9 11 -6 16
4 5 2 9 -4 9 -19 0 -21 -18 -5 -35 9 -9 24 -15 33 -13 20 4 27 44 11 64 -8 9
-9 14 -2 14 6 0 12 -5 14 -12 2 -6 10 -8 17 -4 9 6 9 11 0 22 -15 18 -48 18
-55 0z"/>
<path d="M536 2164 c-19 -18 -19 -24 -6 -58 20 -52 89 -23 75 31 -11 44 -41
56 -69 27z m49 -34 c0 -15 -6 -26 -16 -28 -19 -3 -31 21 -22 43 9 25 38 13 38
-15z"/>
<path d="M624 2134 c5 -46 15 -70 17 -43 1 8 1 17 0 22 -2 12 11 8 31 -10 20
-18 37 -11 20 10 -6 7 -7 18 -2 26 14 24 -1 41 -37 41 l-35 0 6 -46z m48 14
c-9 -9 -15 -9 -24 0 -9 9 -7 12 12 12 19 0 21 -3 12 -12z"/>
<path d="M723 2164 c-4 -11 1 -23 15 -35 28 -22 28 -32 1 -24 -15 5 -20 3 -17
-6 3 -8 16 -15 30 -17 38 -5 44 32 10 58 -26 21 -26 21 -3 14 17 -4 22 -2 19
7 -7 21 -47 23 -55 3z"/>
<path d="M497 2163 c-4 -3 -7 -18 -7 -32 l0 -26 -13 24 c-15 29 -31 29 -35 -1
l-4 -22 -13 23 c-19 36 -25 11 -8 -31 16 -40 50 -55 40 -18 -3 11 -1 23 5 26
5 3 12 -3 15 -15 3 -12 12 -21 19 -21 10 0 14 14 14 50 0 51 -1 55 -13 43z"/>
<path d="M809 2148 c0 -13 -2 -33 -5 -45 -2 -12 1 -25 6 -28 6 -3 11 -1 11 4
1 6 2 16 3 21 0 6 4 10 9 10 4 0 11 0 16 0 6 0 8 -9 6 -20 -2 -11 0 -20 5 -20
11 0 23 62 17 87 -4 16 -6 16 -12 -4 -9 -28 -35 -30 -35 -3 0 28 -20 25 -21
-2z"/>
<path d="M904 2149 c-4 -7 -9 -30 -11 -53 -6 -54 12 -36 22 22 7 42 3 53 -11
31z"/>
<path d="M931 2100 c-13 -43 -7 -66 9 -40 5 8 15 15 22 16 37 3 39 5 36 32 -2
21 -9 28 -29 30 -22 3 -27 -2 -38 -38z m49 10 c0 -5 -4 -10 -10 -10 -5 0 -10
5 -10 10 0 6 5 10 10 10 6 0 10 -4 10 -10z"/>
<path d="M2344 2139 c-4 -8 -2 -15 6 -17 9 -3 5 -9 -11 -18 -13 -7 -18 -13
-11 -14 7 0 10 -4 7 -10 -3 -5 -1 -18 4 -29 8 -15 21 -19 56 -19 50 1 59 7 48
34 -6 16 -7 16 -20 -2 -12 -17 -13 -17 -14 2 -1 10 -1 22 0 27 0 4 -5 7 -12 7
-8 0 -13 10 -13 22 1 25 -27 37 -40 17z m41 -79 c-3 -5 -10 -10 -16 -10 -5 0
-9 5 -9 10 0 6 7 10 16 10 8 0 12 -4 9 -10z"/>
<path d="M2568 2145 c-3 -3 -27 -6 -52 -7 -52 -1 -62 -12 -52 -53 5 -20 12
-25 40 -25 35 0 52 12 57 44 5 26 21 30 44 10 15 -12 16 -14 4 -11 -16 5 -39
-9 -39 -24 0 -13 32 -19 51 -9 19 11 21 42 3 59 -13 12 -49 22 -56 16z m-32
-54 c-7 -11 -56 -16 -56 -6 0 3 8 13 18 24 14 15 20 16 31 6 7 -7 10 -18 7
-24z"/>
<path d="M2746 2143 c-4 -4 -23 -6 -42 -4 l-36 3 17 -26 c17 -25 17 -26 -3
-26 -11 0 -22 -7 -26 -15 -3 -9 0 -15 8 -15 8 0 16 6 18 12 3 8 9 4 17 -10 6
-12 18 -22 26 -22 18 0 30 39 16 53 -8 8 -11 6 -11 -7 0 -9 -4 -14 -10 -11
-17 11 -11 35 9 35 22 0 46 25 33 34 -5 3 -12 2 -16 -1z"/>
<path d="M990 1850 c0 -6 8 -10 18 -10 9 0 24 -5 32 -11 11 -8 8 -9 -17 -5
-38 6 -53 -18 -27 -43 15 -15 16 -14 11 7 -5 19 -2 23 16 20 15 -2 21 -9 19
-20 -2 -11 3 -18 13 -18 8 0 14 3 14 8 -5 31 3 42 30 42 17 0 33 -5 37 -11 3
-6 -1 -10 -12 -9 -11 1 -25 2 -31 1 -18 -1 -16 -41 2 -41 9 0 12 6 9 15 -4 10
0 15 10 15 9 0 19 -6 22 -14 3 -8 12 -17 20 -20 11 -4 13 0 8 19 -5 19 -2 25
9 25 20 0 31 -17 16 -25 -5 -4 -8 -13 -5 -21 3 -7 1 -16 -4 -19 -15 -10 -12
-35 5 -35 9 0 12 6 8 18 -6 15 -4 15 15 -2 12 -11 24 -17 27 -14 3 3 -1 11
-10 18 -15 13 -19 37 -10 63 5 11 14 12 50 4 25 -6 45 -14 45 -19 0 -5 -9 -6
-20 -3 -15 5 -20 2 -20 -11 0 -16 -1 -16 -20 1 -18 16 -20 16 -20 2 0 -20 52
-36 58 -19 6 20 22 13 22 -10 0 -26 16 -13 22 16 1 11 8 21 15 23 9 3 10 -4 3
-26 -5 -19 -5 -33 1 -37 5 -3 12 8 15 25 4 19 13 31 22 31 26 0 0 18 -33 23
-16 3 -88 17 -160 32 -71 15 -141 29 -155 31 -14 3 -31 7 -37 9 -7 2 -13 0
-13 -5z"/>
<path d="M2125 1804 c-128 -27 -178 -29 -194 -10 -21 25 -50 26 -76 1 -21 -18
-37 -23 -91 -24 -64 -1 -100 11 -88 30 3 5 0 9 -6 9 -7 0 -9 -8 -5 -19 6 -19
0 -20 -100 -19 -59 0 -109 -3 -112 -6 -4 -3 5 -6 19 -6 14 0 28 -6 31 -14 7
-18 -18 -42 -28 -26 -3 5 -1 10 4 10 6 0 11 5 11 10 0 6 -7 10 -15 10 -21 0
-31 -30 -14 -41 19 -13 64 -7 65 9 1 6 2 18 3 26 1 10 15 14 48 14 47 0 47 0
25 -17 -13 -9 -20 -20 -16 -24 11 -11 44 -8 44 3 0 6 7 10 15 10 8 0 15 -9 15
-21 0 -12 4 -17 11 -14 6 4 8 13 6 19 -7 18 8 39 30 43 23 4 63 -5 63 -15 -1
-17 -19 -34 -30 -27 -9 6 -9 9 1 16 10 6 6 9 -14 9 -25 0 -27 -2 -17 -20 8
-14 21 -20 45 -20 32 0 35 2 35 31 0 17 4 28 10 24 6 -3 10 -17 10 -31 0 -13
5 -24 10 -24 6 0 10 14 10 30 0 17 5 30 10 30 6 0 10 -11 10 -24 0 -14 5 -28
10 -31 6 -4 10 7 10 24 0 27 3 31 28 31 25 -1 26 -1 8 -15 -17 -13 -17 -15 -3
-29 19 -20 45 -22 29 -3 -7 8 -6 18 4 31 14 20 54 30 54 14 0 -4 -9 -8 -20 -8
-13 0 -20 -7 -20 -20 0 -16 7 -20 36 -20 33 0 35 2 32 28 -3 25 1 28 42 38 25
6 47 10 49 8 9 -8 -13 -24 -34 -24 -31 0 -41 -18 -21 -38 13 -13 18 -14 28 -3
7 7 9 11 3 9 -5 -2 -11 2 -12 7 -2 6 3 10 10 10 6 0 18 4 25 8 8 5 12 3 12 -7
0 -9 5 -16 11 -16 7 0 9 11 6 29 -5 24 -2 31 14 36 25 8 39 -2 15 -11 -9 -3
-16 -12 -16 -20 0 -20 37 -17 49 4 10 16 12 16 26 -2 8 -11 15 -18 16 -15 3
21 3 71 -1 73 -3 2 -54 -8 -115 -20z m-210 -14 c4 -6 -5 -10 -19 -10 -14 0
-26 5 -26 10 0 6 9 10 19 10 11 0 23 -4 26 -10z m85 -54 c0 -11 -19 -15 -25
-6 -3 5 1 10 9 10 9 0 16 -2 16 -4z"/>
<path d="M1548 1738 c8 -8 9 -15 1 -25 -7 -7 -8 -13 -3 -13 13 0 36 16 36 25
0 9 -23 25 -36 25 -6 0 -5 -5 2 -12z"/>
<path d="M2220 1725 c7 -8 16 -15 21 -15 5 0 6 7 3 15 -4 8 -13 15 -21 15 -13
0 -13 -3 -3 -15z"/>
<path d="M905 1653 c-16 -2 -53 -10 -81 -18 -40 -12 -64 -13 -105 -5 -62 12
-109 5 -109 -16 0 -8 5 -14 10 -14 26 0 6 -20 -30 -30 -22 -6 -40 -15 -40 -19
0 -12 77 -32 130 -35 25 -1 65 -13 90 -26 84 -45 205 -96 250 -104 9 -2 14
-12 12 -23 -5 -39 70 -38 145 1 36 18 43 26 49 60 4 22 0 24 -38 28 -27 3 -48
-1 -56 -9 -7 -7 -20 -13 -29 -13 -15 0 -178 94 -187 108 -3 4 18 16 47 26 57
20 127 62 127 75 0 5 -7 12 -16 15 -16 6 -118 6 -169 -1z m150 -15 c10 -9 -45
-39 -123 -68 l-75 -27 41 -23 c26 -15 38 -28 35 -37 -4 -11 1 -12 21 -7 19 4
27 2 32 -10 3 -9 10 -13 15 -10 5 3 9 -3 9 -12 0 -10 3 -15 6 -11 4 3 20 -1
37 -9 21 -11 26 -18 17 -24 -17 -11 -103 12 -180 48 -57 27 -250 153 -250 164
0 5 17 8 38 6 20 -2 36 -7 35 -13 -3 -16 27 -28 40 -17 38 31 281 72 302 50z
m-384 -88 l24 -19 -35 3 c-19 2 -43 4 -52 5 -26 1 -22 19 5 24 12 2 25 5 28 6
4 0 17 -8 30 -19z m537 -125 c-11 -11 -89 -31 -94 -24 -3 5 -4 9 -2 9 2 0 21
7 43 14 34 12 65 12 53 1z"/>
<path d="M850 1520 c0 -7 24 -20 36 -20 13 0 1 19 -16 23 -11 3 -20 2 -20 -3z"/>
<path d="M1772 1464 c-13 -14 -13 -31 1 -26 4 1 7 -14 7 -33 0 -35 -20 -51
-20 -17 -1 16 -1 16 -14 0 -15 -20 -36 -24 -36 -7 0 5 5 7 10 4 6 -3 10 -2 10
3 0 5 -19 8 -42 7 -26 -1 -47 4 -53 12 -7 9 -21 11 -43 7 -25 -5 -32 -11 -32
-30 0 -13 -4 -24 -10 -24 -5 0 -10 7 -10 15 0 17 -9 19 -43 6 -26 -10 -42 -48
-27 -66 7 -8 -1 -15 -25 -22 -19 -6 -33 -7 -29 -2 3 5 11 9 19 9 8 0 17 5 20
10 11 18 -25 10 -42 -9 -34 -37 -48 -55 -58 -75 -13 -25 -28 -23 -37 6 -6 22
-6 22 -7 -4 -1 -15 -9 -33 -20 -40 -11 -8 -18 -25 -18 -41 0 -28 0 -29 51 -22
28 4 52 10 53 14 2 3 56 5 120 4 77 -1 120 2 125 10 8 14 21 16 148 20 100 4
140 12 140 26 0 3 -11 7 -25 7 -14 1 -22 -2 -19 -7 3 -5 -7 -9 -21 -9 -15 0
-24 4 -20 10 4 6 11 8 16 5 5 -4 9 -2 9 4 0 5 -5 11 -10 13 -7 2 -6 17 3 43 8
22 17 53 21 68 7 28 6 29 -31 25 l-38 -3 0 57 c0 63 -4 72 -23 52z m-72 -89
c0 -1 -12 -2 -26 -2 -17 0 -22 2 -13 7 10 7 39 3 39 -5z m-180 -15 c0 -5 -2
-10 -4 -10 -3 0 -8 5 -11 10 -3 6 -1 10 4 10 6 0 11 -4 11 -10z m85 0 c-3 -5
-12 -10 -18 -10 -7 0 -6 4 3 10 19 12 23 12 15 0z m115 -12 c0 -4 -8 -9 -17
-9 -10 -1 -31 -3 -47 -5 -35 -4 -22 13 14 18 40 6 50 5 50 -4z m40 8 c0 -3 -4
-8 -10 -11 -5 -3 -10 -1 -10 4 0 6 5 11 10 11 6 0 10 -2 10 -4z m-191 -10 c-2
-2 -15 -9 -29 -16 -23 -12 -24 -12 -11 3 7 10 20 17 29 17 8 0 13 -2 11 -4z
m281 -14 c0 -25 -20 -42 -50 -42 -43 0 -216 -40 -354 -81 -173 -52 -177 -53
-135 -30 73 40 330 128 459 155 84 19 80 19 80 -2z m-230 -8 c0 -10 -6 -14
-15 -11 -8 4 -17 2 -20 -4 -4 -5 -10 -7 -15 -4 -5 3 -11 1 -15 -4 -3 -6 -12
-8 -20 -4 -8 3 -15 0 -15 -6 0 -6 -4 -11 -10 -11 -24 0 -6 18 38 37 59 26 72
27 72 7z m-110 -4 c0 -5 -2 -10 -4 -10 -3 0 -8 5 -11 10 -3 6 -1 10 4 10 6 0
11 -4 11 -10z m-21 -43 c-9 -8 -119 -46 -119 -42 0 4 70 38 100 47 15 5 28 1
19 -5z"/>
<path d="M1719 1141 c11 -7 11 -9 0 -14 -8 -3 -9 -6 -3 -6 6 -1 16 5 22 12 8
10 6 13 -11 14 -15 2 -18 0 -8 -6z"/>
<path d="M3165 2890 c-5 -8 -10 -24 -10 -35 0 -17 -7 -20 -50 -20 -28 0 -51
-4 -53 -10 -3 -11 35 -20 87 -20 39 0 51 21 41 70 -4 24 -7 27 -15 15z"/>
<path d="M84 2868 c-7 -10 11 -16 56 -20 l35 -3 -44 -25 c-67 -38 -64 -50 13
-50 76 0 99 17 29 22 l-48 3 48 25 c44 24 62 49 35 50 -7 1 -37 2 -66 4 -29 1
-55 -1 -58 -6z"/>
<path d="M3105 2751 c-80 -24 -81 -44 -1 -78 58 -24 94 -20 61 7 -19 16 -20
49 0 56 15 6 22 35 8 33 -5 0 -35 -9 -68 -18z m15 -41 c0 -5 -4 -10 -9 -10 -6
0 -13 5 -16 10 -3 6 1 10 9 10 9 0 16 -4 16 -10z"/>
<path d="M80 2730 c0 -4 7 -13 15 -20 8 -7 15 -21 15 -32 0 -10 -7 -21 -15
-24 -21 -8 -19 -24 3 -24 19 0 107 32 118 43 13 13 -17 35 -64 47 -67 18 -72
19 -72 10z m90 -44 c0 -9 -30 -14 -35 -6 -4 6 3 10 14 10 12 0 21 -2 21 -4z"/>
<path d="M200 2609 c-9 -20 -19 -25 -57 -26 -26 -2 -51 -7 -57 -13 -11 -11 1
-13 70 -10 35 1 42 -2 47 -21 10 -37 21 -12 18 39 -3 57 -7 62 -21 31z"/>
<path d="M3030 2612 c0 -5 9 -17 20 -27 11 -10 20 -22 20 -27 0 -4 -9 -8 -20
-8 -11 0 -20 -6 -20 -14 0 -9 18 -14 64 -15 69 -2 96 12 43 23 l-32 7 35 29
c44 36 34 48 -18 21 -39 -20 -40 -20 -57 -1 -19 21 -35 26 -35 12z"/>
<path d="M107 2492 c-20 -4 -23 -22 -4 -23 17 -1 80 2 103 5 10 2 18 7 16 12
-2 9 -80 13 -115 6z"/>
<path d="M3025 2480 c-3 -6 6 -15 20 -20 34 -13 33 -57 -1 -52 -12 2 -24 -4
-27 -13 -4 -10 0 -15 11 -15 9 -1 41 -3 70 -6 57 -6 75 12 21 23 -23 4 -29 10
-27 27 2 16 10 21 32 21 16 1 31 6 34 13 4 12 0 13 -49 17 -14 1 -37 5 -52 9
-14 3 -29 2 -32 -4z"/>
<path d="M160 2441 c-65 -15 -85 -66 -40 -103 29 -24 61 -23 94 3 51 40 11
115 -54 100z m50 -54 c0 -34 -57 -50 -80 -22 -14 17 -6 33 24 45 24 9 56 -4
56 -23z"/>
<path d="M3007 2343 c-11 -10 -8 -93 3 -93 6 0 10 7 10 15 0 16 10 18 78 15
24 -1 42 3 42 9 0 6 -1 11 -2 12 -2 0 -25 3 -53 6 -48 5 -69 18 -59 35 6 10
-10 11 -19 1z"/>
<path d="M147 2292 c-52 -4 -43 -28 9 -24 l39 2 -24 -17 c-78 -56 -79 -68 -3
-64 57 2 82 9 82 23 0 6 -16 8 -40 4 -49 -7 -51 5 -5 33 19 11 35 27 35 34 0
15 -10 16 -93 9z"/>
<path d="M3063 2219 c-10 -4 -30 -8 -45 -8 -21 -1 -28 -6 -28 -20 0 -14 16
-27 54 -45 30 -14 60 -26 65 -26 16 0 13 16 -4 30 -20 16 -19 22 5 50 11 13
20 25 20 26 0 6 -47 0 -67 -7z m7 -39 c0 -5 -4 -10 -9 -10 -6 0 -13 5 -16 10
-3 6 1 10 9 10 9 0 16 -4 16 -10z"/>
<path d="M120 2135 c0 -8 6 -15 14 -15 20 0 25 -44 7 -60 -31 -30 15 -22 68
10 63 39 65 59 7 65 -12 2 -38 6 -58 9 -30 5 -38 3 -38 -9z m90 -30 c0 -2 -7
-5 -15 -9 -9 -3 -15 0 -15 9 0 9 6 12 15 9 8 -4 15 -7 15 -9z"/>
<path d="M2988 2088 c-9 -7 -19 -30 -22 -50 -6 -36 -4 -37 27 -43 56 -10 92
-10 97 0 3 6 -5 11 -18 13 -33 5 -27 47 7 47 28 0 42 25 14 26 -30 1 -57 6
-73 13 -9 4 -23 1 -32 -6z m33 -31 c-1 -4 -1 -14 -1 -22 0 -8 -7 -15 -15 -15
-16 0 -19 9 -9 35 6 15 26 17 25 2z"/>
<path d="M200 2016 c-53 -11 -55 -13 -52 -41 4 -41 9 -55 22 -55 5 0 9 14 8
32 -3 30 -1 32 45 42 27 6 48 15 48 21 1 14 -10 14 -71 1z"/>
<path d="M2950 1951 c0 -10 21 -18 68 -24 12 -2 28 -9 35 -16 21 -22 -16 -40
-61 -30 -50 12 -52 11 -52 -6 0 -8 6 -15 13 -16 6 0 31 -2 55 -5 26 -4 48 -1
57 6 18 15 20 64 2 78 -19 16 -117 27 -117 13z"/>
<path d="M228 1844 c-43 -13 -66 -34 -37 -34 25 0 119 32 119 41 0 12 -26 10
-82 -7z"/>
<path d="M2932 1814 c-17 -12 -22 -24 -20 -47 2 -26 8 -33 30 -35 22 -3 30 2
39 22 7 14 17 27 25 30 22 9 24 -23 2 -44 -25 -23 -19 -35 11 -25 24 7 38 51
24 74 -18 29 -46 25 -75 -10 -24 -29 -28 -30 -34 -14 -5 12 -1 22 10 31 27 20
15 37 -12 18z"/>
<path d="M246 1791 c-64 -19 -63 -37 1 -25 l38 6 -32 -34 c-56 -58 -42 -68 55
-38 69 21 53 40 -17 20 l-35 -10 38 39 c21 22 35 44 32 50 -8 13 -5 13 -80 -8z"/>
<path d="M317 1669 c-12 -7 -17 -22 -17 -49 0 -28 -4 -40 -14 -40 -18 0 -26
22 -19 49 4 17 2 20 -11 15 -22 -9 -20 -50 4 -74 35 -35 65 -18 65 37 0 27 4
38 15 38 10 0 15 -10 15 -27 0 -14 3 -29 7 -33 9 -10 22 41 15 59 -9 23 -40
36 -60 25z"/>
<path d="M385 1550 c5 -16 -3 -23 -44 -41 -28 -12 -51 -25 -51 -30 0 -13 14
-11 60 7 38 15 42 15 59 0 27 -25 31 -7 10 42 -18 42 -46 61 -34 22z"/>
<path d="M2930 1520 c0 -5 12 -10 28 -10 21 0 24 2 12 10 -20 13 -40 13 -40 0z"/>
<path d="M2804 1475 c-17 -12 -11 -21 48 -68 30 -25 49 -34 53 -27 4 7 3 16
-3 22 -15 15 -3 44 25 57 14 7 23 14 20 17 -10 10 -130 9 -143 -1z m70 -37
c-3 -5 -12 -4 -20 3 -19 16 -18 18 6 12 11 -3 17 -9 14 -15z"/>
<path d="M378 1427 c-27 -12 -48 -28 -48 -34 0 -7 2 -13 5 -13 14 0 115 54
115 61 0 14 -20 10 -72 -14z"/>
<path d="M455 1390 c5 -16 -3 -24 -46 -45 -62 -32 -55 -56 9 -25 47 23 59 25
64 9 2 -7 9 -10 16 -8 8 3 5 17 -8 47 -19 42 -47 60 -35 22z"/>
<path d="M2765 1379 c-3 -8 -1 -28 5 -43 10 -27 9 -28 -16 -22 -43 11 -23 -16
31 -42 54 -26 101 -22 52 5 -33 17 -30 23 14 32 18 4 34 12 37 20 3 10 -6 12
-42 7 -45 -6 -47 -6 -61 26 -10 25 -15 29 -20 17z"/>
<path d="M458 1268 c-21 -12 -41 -30 -44 -40 -7 -23 21 -68 42 -68 22 0 104
39 104 50 0 18 -17 18 -48 -1 -41 -24 -72 -25 -72 -1 0 11 16 27 40 41 22 12
42 26 45 31 11 18 -29 10 -67 -12z"/>
<path d="M2690 1224 c-11 -12 15 -44 79 -99 l24 -20 -7 37 c-6 35 3 52 28 53
5 0 11 6 14 13 2 7 -5 12 -17 12 -12 0 -24 1 -28 2 -55 13 -84 14 -93 2z m70
-34 c0 -5 -7 -7 -15 -4 -8 4 -15 8 -15 10 0 2 7 4 15 4 8 0 15 -4 15 -10z"/>
<path d="M574 1165 c5 -21 0 -29 -41 -54 -37 -23 -44 -31 -31 -36 10 -4 32 4
54 19 28 19 41 23 51 15 28 -24 31 -2 5 38 -30 48 -47 56 -38 18z"/>
<path d="M2652 1158 c-22 -28 -41 -77 -33 -83 6 -3 14 1 18 10 7 13 15 11 55
-10 54 -29 58 -30 58 -12 0 6 -20 22 -43 35 -37 20 -43 27 -39 48 5 27 0 31
-16 12z"/>
<path d="M597 1048 c-26 -18 -47 -38 -47 -43 0 -6 13 -26 30 -45 31 -38 43
-22 14 19 -14 19 -14 25 -3 32 10 6 18 3 28 -11 7 -11 20 -20 28 -20 13 0 13
4 -2 26 -24 37 -4 54 23 20 22 -29 32 -33 32 -13 0 14 -41 67 -51 67 -3 0 -26
-15 -52 -32z"/>
<path d="M2577 1028 c-5 -16 72 -120 84 -112 5 3 7 15 3 28 -6 24 15 49 36 44
7 -2 14 2 17 8 2 6 -23 18 -57 27 -72 20 -77 21 -83 5z m73 -32 c0 -11 -19
-15 -25 -6 -3 5 1 10 9 10 9 0 16 -2 16 -4z"/>
<path d="M2525 950 c-4 -6 6 -22 21 -35 36 -31 30 -36 -23 -22 -71 19 -70 -9
0 -67 46 -37 61 -26 21 15 l-29 31 30 -6 c65 -14 75 -15 79 -7 7 10 -3 22 -51
65 -26 23 -44 33 -48 26z"/>
<path d="M711 894 c-35 -29 -39 -52 -13 -84 26 -32 70 -30 99 4 28 33 29 60 3
86 -27 27 -52 25 -89 -6z m78 -18 c9 -11 7 -20 -12 -41 -20 -24 -26 -26 -45
-16 -26 14 -28 28 -5 53 19 22 46 23 62 4z"/>
<path d="M2400 818 l-32 -31 44 -43 c43 -43 68 -55 68 -33 0 7 -8 18 -17 25
-17 12 -17 14 -1 30 14 14 21 15 30 6 7 -7 21 -12 32 -12 18 0 19 1 1 20 -10
11 -24 20 -32 20 -7 0 -13 7 -13 15 0 12 -28 35 -44 35 -2 0 -19 -14 -36 -32z
m53 -11 c6 -17 -29 -41 -38 -26 -7 10 12 39 25 39 4 0 10 -6 13 -13z"/>
<path d="M807 782 c-47 -48 -52 -88 -6 -46 16 14 20 14 43 -1 23 -15 26 -16
26 -2 0 9 -8 20 -17 26 -14 8 -15 12 -6 22 10 10 16 9 31 -4 18 -16 42 -23 42
-12 0 12 -50 55 -63 55 -7 0 -30 -17 -50 -38z"/>
<path d="M2310 721 c0 -25 41 -121 51 -121 5 0 9 8 9 18 0 25 19 42 47 42 37
0 27 16 -31 49 -62 36 -76 38 -76 12z m60 -42 c0 -14 -17 -10 -23 5 -4 10 -1
13 9 9 7 -3 14 -9 14 -14z"/>
<path d="M1000 676 c0 -8 5 -16 12 -18 8 -3 1 -19 -20 -44 -32 -39 -41 -64
-22 -64 6 0 10 3 10 8 0 4 14 22 31 40 25 26 33 30 50 22 30 -17 23 5 -13 39
-36 34 -48 38 -48 17z"/>
<path d="M2237 663 c-4 -3 -7 -22 -7 -42 0 -20 -4 -31 -8 -26 -4 6 -15 16 -24
24 -35 27 -20 -12 24 -62 28 -33 44 -44 49 -36 4 7 1 19 -7 26 -24 25 -16 34
25 27 55 -9 60 11 5 25 -43 11 -45 13 -40 41 4 29 -3 38 -17 23z"/>
<path d="M1066 566 c-20 -23 -36 -49 -36 -57 0 -18 60 -60 73 -52 6 3 -3 17
-19 29 -22 18 -26 26 -17 35 9 9 18 8 37 -4 33 -22 43 -4 11 21 -20 16 -22 22
-11 31 10 8 17 6 31 -9 20 -22 35 -26 35 -10 0 11 -50 59 -62 60 -4 0 -23 -20
-42 -44z"/>
<path d="M2076 542 c-3 -5 -3 -21 0 -36 5 -27 4 -27 -24 -12 -28 14 -42 13
-42 -5 0 -4 11 -10 24 -13 14 -3 39 -20 56 -37 37 -37 48 -33 26 10 -9 16 -16
43 -16 60 0 30 -14 49 -24 33z"/>
<path d="M1195 510 c-28 -11 -43 -30 -49 -62 -6 -34 28 -72 58 -64 11 3 25 6
29 6 5 0 5 5 2 10 -3 6 -17 10 -31 10 -32 0 -40 24 -20 55 22 33 54 32 67 -2
8 -21 12 -24 19 -14 8 15 -7 61 -21 61 -4 0 -13 2 -21 4 -7 3 -22 1 -33 -4z"/>
<path d="M1943 455 c-18 -8 -33 -18 -34 -22 0 -4 -2 -15 -4 -25 -4 -23 31 -78
52 -79 35 -2 48 3 71 27 22 24 23 26 8 50 -14 20 -20 22 -36 14 -26 -14 -25
-28 2 -32 21 -3 21 -4 4 -20 -24 -25 -43 -22 -63 8 -21 32 -8 57 32 64 23 4
26 7 14 17 -11 9 -22 8 -46 -2z"/>
<path d="M1276 400 c-20 -28 -36 -52 -36 -55 0 -12 23 -3 38 15 15 19 19 19
37 6 18 -13 18 -17 7 -37 -8 -12 -10 -25 -5 -30 6 -6 24 12 46 43 24 34 33 56
27 62 -7 7 -16 2 -26 -13 -15 -21 -17 -21 -35 -5 -13 12 -16 21 -9 28 12 12
13 36 1 36 -5 0 -25 -23 -45 -50z"/>
<path d="M1790 370 c-24 -24 -25 -32 -4 -75 37 -78 146 -33 113 46 -21 51 -73
65 -109 29z m86 -43 c6 -19 -11 -47 -29 -47 -18 0 -47 32 -47 51 0 43 62 39
76 -4z"/>
<path d="M1397 331 c-15 -27 -27 -54 -27 -60 0 -23 20 -9 37 27 l18 37 5 -54
c3 -30 10 -56 17 -58 11 -4 63 84 63 107 0 21 -19 9 -32 -20 -18 -42 -26 -37
-30 17 -2 25 -8 48 -14 50 -6 2 -23 -19 -37 -46z"/>
<path d="M1662 308 c3 -7 13 -37 22 -66 16 -47 20 -52 39 -46 52 16 68 25 62
34 -4 6 -15 6 -31 0 -29 -11 -44 -6 -44 16 0 22 -29 74 -41 74 -6 0 -9 -6 -7
-12z"/>
<path d="M1536 287 c-19 -28 -13 -87 11 -104 52 -39 121 31 90 92 -14 27 -27
35 -59 35 -18 0 -33 -8 -42 -23z m77 -26 c7 -27 -11 -61 -32 -61 -31 0 -42 48
-16 74 18 18 41 12 48 -13z"/>
<path d="M1040 981 c-12 -7 -15 -30 -15 -98 l0 -88 28 -3 c30 -4 29 -9 29 105
0 90 -7 104 -42 84z m24 -98 c-2 -87 -2 -85 -16 -81 -24 8 -19 148 5 148 9 0
12 -20 11 -67z"/>
<path d="M1118 962 c-3 -9 -1 -26 3 -37 7 -19 8 -19 8 3 1 13 7 22 16 22 12 0
15 -15 15 -75 0 -58 -3 -75 -14 -75 -8 0 -17 10 -19 23 -4 15 -5 12 -4 -8 2
-29 7 -32 46 -26 14 2 12 174 -2 183 -21 13 -44 9 -49 -10z"/>
<path d="M1522 962 c-17 -11 -25 -59 -11 -67 6 -4 10 -1 8 6 -3 27 1 39 14 39
9 0 12 -19 11 -70 -1 -87 -1 -85 -18 -70 -8 6 -12 18 -9 26 3 8 1 14 -4 14 -6
0 -9 -12 -8 -27 1 -20 8 -29 28 -34 30 -8 28 -17 30 106 2 64 -1 80 -13 82 -8
2 -21 -1 -28 -5z"/>
<path d="M1599 967 c-9 -28 -6 -37 12 -32 21 7 22 4 19 -85 -1 -30 -4 -57 -6
-60 -8 -8 -23 22 -17 36 2 6 1 14 -4 17 -4 3 -9 -8 -10 -24 -1 -19 4 -32 15
-38 35 -19 43 1 40 94 -3 83 -4 88 -25 91 -13 2 -23 3 -24 1z"/>
<path d="M2002 948 c-20 -20 -14 -31 13 -24 25 6 25 6 25 -63 0 -40 -5 -73
-11 -77 -13 -8 -30 16 -22 30 3 5 1 6 -5 3 -22 -14 -6 -42 24 -42 l29 0 2 93
c3 90 2 92 -20 92 -13 0 -28 -5 -35 -12z"/>
<path d="M2090 865 l0 -95 31 0 30 0 -3 92 c-3 91 -3 91 -30 95 l-28 4 0 -96z
m40 -10 c0 -60 -3 -75 -15 -75 -12 0 -15 14 -15 68 0 38 3 72 7 75 17 18 23 1
23 -68z"/>
<path d="M1202 919 c1 -19 4 -26 9 -17 13 21 22 1 24 -52 2 -52 -7 -63 -24
-32 -9 15 -10 14 -8 -5 1 -13 5 -24 9 -24 44 -7 47 -1 42 75 -3 42 -9 65 -21
74 -26 18 -32 15 -31 -19z"/>
<path d="M1443 925 c-21 -15 -25 -37 -9 -52 4 -4 6 -2 4 6 -1 7 3 16 10 18 9
3 12 -11 12 -52 0 -35 -4 -54 -10 -50 -5 3 -10 19 -10 36 0 16 -3 29 -7 29 -5
0 -8 -18 -8 -40 0 -38 2 -41 25 -38 24 3 24 5 25 81 0 42 -2 77 -5 77 -3 0
-15 -7 -27 -15z"/>
<path d="M1680 875 c0 -36 4 -65 8 -65 4 0 7 22 5 50 -3 42 -1 49 12 44 11 -5
15 -21 15 -61 0 -50 -2 -54 -20 -48 -11 3 -20 2 -20 -3 0 -10 41 -24 48 -17 2
2 5 33 7 69 3 58 1 68 -18 81 -12 8 -25 15 -29 15 -5 0 -8 -29 -8 -65z"/>
<path d="M1928 919 c-12 -6 -18 -22 -17 -42 0 -31 0 -31 10 -7 18 44 28 -1 20
-84 -1 -6 -6 -5 -13 2 -16 16 -29 15 -22 -2 3 -7 17 -13 32 -12 27 1 27 1 27
79 0 78 -4 86 -37 66z"/>
<path d="M2180 850 c0 -74 2 -80 20 -80 24 0 28 8 33 74 3 39 0 52 -16 67 -12
10 -24 19 -29 19 -4 0 -8 -36 -8 -80z m31 30 c1 -5 2 -21 2 -35 0 -51 -3 -65
-13 -65 -5 0 -10 25 -10 55 0 30 5 55 10 55 6 0 11 -4 11 -10z"/>
<path d="M1999 908 c-5 -16 -6 -69 -1 -72 4 -2 8 14 9 35 1 21 0 39 -3 39 -2
0 -4 -1 -5 -2z"/>
<path d="M1110 891 c0 -6 5 -13 10 -16 6 -3 10 1 10 9 0 9 -4 16 -10 16 -5 0
-10 -4 -10 -9z"/>
<path d="M1593 880 c1 -11 5 -20 9 -20 3 0 6 9 5 20 -1 11 -5 20 -9 20 -3 0
-6 -9 -5 -20z"/>
<path d="M1200 860 c0 -11 4 -20 9 -20 5 0 7 9 4 20 -3 11 -7 20 -9 20 -2 0
-4 -9 -4 -20z"/>
<path d="M1500 871 c0 -6 4 -12 8 -15 5 -3 9 1 9 9 0 8 -4 15 -9 15 -4 0 -8
-4 -8 -9z"/>
<path d="M1372 838 c-11 -40 -5 -60 16 -56 11 2 16 15 16 42 1 50 -20 59 -32
14z"/>
<path d="M1855 829 c-19 -35 -16 -51 8 -55 14 -2 17 6 17 42 0 24 -2 44 -5 44
-2 0 -12 -14 -20 -31z"/>
<path d="M1906 825 c4 -8 8 -15 10 -15 2 0 4 7 4 15 0 8 -4 15 -10 15 -5 0 -7
-7 -4 -15z"/>
<path d="M1511 666 c7 -7 88 -11 94 -5 3 3 -18 7 -47 8 -28 1 -50 -1 -47 -3z"/>
<path d="M1655 663 c-11 -2 -30 -9 -41 -15 -13 -6 -53 -8 -93 -6 -39 3 -71 2
-71 -1 0 -12 158 -13 165 -1 3 5 17 10 30 10 13 0 27 5 30 10 3 6 5 9 3 9 -2
-1 -12 -3 -23 -6z"/>
<path d="M1950 662 c0 -4 9 -8 20 -8 11 0 20 4 20 8 0 4 -9 8 -20 8 -11 0 -20
-4 -20 -8z"/>
<path d="M2005 660 c-2 -3 12 -7 31 -8 19 -2 34 -1 34 2 0 7 -61 13 -65 6z"/>
<path d="M1920 636 c19 -7 39 -10 45 -7 11 6 -29 19 -60 19 -11 1 -5 -5 15
-12z"/>
<path d="M1695 620 c3 -5 8 -10 11 -10 2 0 4 5 4 10 0 6 -5 10 -11 10 -5 0 -7
-4 -4 -10z"/>
<path d="M1465 600 c83 -18 125 -22 125 -14 0 5 -15 10 -33 11 -17 2 -54 5
-82 7 -48 5 -48 4 -10 -4z"/>
<path d="M1621 580 c10 -7 49 -2 49 5 0 2 -14 3 -31 3 -17 -1 -25 -4 -18 -8z"/>
<path d="M1886 581 c-3 -4 6 -6 19 -3 14 2 25 6 25 8 0 8 -39 4 -44 -5z"/>
<path d="M1470 571 c0 -6 1 -11 3 -11 1 0 36 -3 77 -7 84 -6 94 3 12 11 -30 3
-62 8 -73 11 -11 4 -19 2 -19 -4z"/>
<path d="M1373 530 c29 -9 71 -13 121 -11 55 2 20 10 -64 15 -57 3 -76 2 -57
-4z"/>
<path d="M1613 524 c4 -4 15 -9 25 -10 9 -1 37 -5 62 -8 40 -6 52 4 12 11 -70
11 -106 14 -99 7z"/>
<path d="M1550 505 c0 -5 71 -25 111 -30 16 -2 29 1 29 7 0 5 -6 8 -12 6 -7
-3 -33 1 -57 9 -45 13 -71 17 -71 8z"/>
<path d="M1758 503 c7 -3 16 -2 19 1 4 3 -2 6 -13 5 -11 0 -14 -3 -6 -6z"/>
<path d="M1470 488 c0 -4 7 -8 15 -8 8 0 15 4 15 8 0 5 -7 9 -15 9 -8 0 -15
-4 -15 -9z"/>
<path d="M1465 460 c-3 -5 3 -8 12 -8 10 1 36 -2 58 -6 27 -5 35 -4 25 2 -22
15 -88 23 -95 12z"/>
<path d="M1644 452 c5 -8 76 -4 76 4 0 2 -18 4 -41 4 -22 0 -38 -4 -35 -8z"/>
<path d="M1505 419 c-4 -5 0 -9 7 -9 7 0 38 -3 68 -6 30 -4 52 -3 48 1 -4 4
-22 9 -40 11 -18 2 -43 5 -55 8 -13 3 -25 1 -28 -5z"/>
</g>
</svg>
